ffmpeg version git-2026-04-19-de18feb Copyright (c) 2000-2026 the FFmpeg developers
  built with gcc 9 (Ubuntu 9.4.0-1ubuntu1~20.04.2)
  configuration: --enable-shared --enable-gpl --enable-libx264
  libavutil      60. 30.100 / 60. 30.100
  libavcodec     62. 30.100 / 62. 30.100
  libavformat    62. 13.102 / 62. 13.102
  libavdevice    62.  4.100 / 62.  4.100
  libavfilter    11. 15.101 / 11. 15.101
  libswscale      9.  7.100 /  9.  7.100
  libswresample   6.  4.100 /  6.  4.100
[in#0/x11grab @ 0x55ca84159c40] Stream #0: not enough frames to estimate rate; consider increasing probesize
Input #0, x11grab, from ':0.0+0,0':
  Duration: N/A, start: 1777439417.318767, bitrate: 3678192 kb/s
  Stream #0:0: Video: rawvideo (BGR[0] / 0x524742), bgr0, 2870x1602, 3678192 kb/s, 25 fps, 1000k tbr, 1000k tbn, start 1777439417.318767
Stream mapping:
  Stream #0:0 -> #0:0 (rawvideo (native) -> h264 (libx264))
[libx264 @ 0x55ca84167f00] using cpu capabilities: MMX2 SSE2Fast SSSE3 SSE4.2 AVX FMA3 BMI2 AVX2
[libx264 @ 0x55ca84167f00] profile High, level 5.0
[libx264 @ 0x55ca84167f00] 264 - core 155 r2917 0a84d98 - H.264/MPEG-4 AVC codec - Copyleft 2003-2018 - http://www.videolan.org/x264.html - options: cabac=1 ref=1 deblock=1:0:0 analyse=0x3:0x113 me=hex subme=2 psy=1 psy_rd=1.00:0.00 mixed_ref=0 me_range=16 chroma_me=1 trellis=0 8x8dct=1 cqm=0 deadzone=21,11 fast_pskip=1 chroma_qp_offset=0 threads=6 lookahead_threads=2 sliced_threads=0 nr=0 decimate=1 interlaced=0 bluray_compat=0 constrained_intra=0 bframes=3 b_pyramid=2 b_adapt=1 b_bias=0 direct=1 weightb=1 open_gop=0 weightp=1 keyint=250 keyint_min=25 scenecut=40 intra_refresh=0 rc_lookahead=10 rc=crf mbtree=1 crf=23.0 qcomp=0.60 qpmin=0 qpmax=69 qpstep=4 ip_ratio=1.40 aq=1:1.00
Output #0, matroska, to '/home/lmy/catkin_ws/recordings_tmp/exp_10_segment_v7/screen.mkv':
  Metadata:
    encoder         : Lavf62.13.102
  Stream #0:0: Video: h264 (H264 / 0x34363248), yuv420p(tv, progressive), 2870x1602, q=2-31, 25 fps, 1k tbn
    Metadata:
      encoder         : Lavc62.30.100 libx264
    Side data:
      CPB properties: bitrate max/min/avg: 0/0/0 buffer size: 0 vbv_delay: N/A
frame=    0 fps=0.0 q=0.0 size=       0KiB time=N/A bitrate=N/A speed=N/A elapsed=0:00:00.50    frame=    5 fps=5.0 q=28.0 size=       1KiB time=00:00:00.12 bitrate=  39.6kbits/s speed=0.12x elapsed=0:00:01.00    frame=   18 fps= 12 q=28.0 size=       1KiB time=00:00:00.64 bitrate=   7.4kbits/s speed=0.427x elapsed=0:00:01.50    frame=   31 fps= 15 q=28.0 size=       1KiB time=00:00:01.16 bitrate=   4.1kbits/s speed=0.58x elapsed=0:00:02.00    frame=   43 fps= 17 q=28.0 size=       1KiB time=00:00:01.64 bitrate=   2.9kbits/s speed=0.656x elapsed=0:00:02.50    frame=   56 fps= 19 q=28.0 size=       1KiB time=00:00:02.16 bitrate=   2.2kbits/s speed=0.72x elapsed=0:00:03.00    frame=   68 fps= 19 q=28.0 size=       1KiB time=00:00:02.64 bitrate=   1.8kbits/s speed=0.754x elapsed=0:00:03.50    frame=   81 fps= 20 q=28.0 size=       1KiB time=00:00:03.16 bitrate=   1.5kbits/s speed=0.79x elapsed=0:00:04.00    frame=   93 fps= 21 q=28.0 size=       1KiB time=00:00:03.64 bitrate=   1.3kbits/s speed=0.809x elapsed=0:00:04.50    frame=  106 fps= 21 q=28.0 size=       1KiB time=00:00:04.16 bitrate=   1.1kbits/s speed=0.832x elapsed=0:00:05.00    frame=  117 fps= 21 q=28.0 size=       1KiB time=00:00:04.60 bitrate=   1.0kbits/s speed=0.836x elapsed=0:00:05.50    frame=  131 fps= 22 q=28.0 size=     162KiB time=00:00:05.16 bitrate= 256.9kbits/s speed=0.86x elapsed=0:00:06.00    frame=  143 fps= 22 q=28.0 size=     162KiB time=00:00:05.64 bitrate= 235.1kbits/s speed=0.867x elapsed=0:00:06.50    frame=  156 fps= 22 q=28.0 size=     162KiB time=00:00:06.16 bitrate= 215.2kbits/s speed=0.88x elapsed=0:00:07.00    frame=  168 fps= 22 q=28.0 size=     162KiB time=00:00:06.64 bitrate= 199.7kbits/s speed=0.885x elapsed=0:00:07.50    frame=  181 fps= 23 q=28.0 size=     162KiB time=00:00:07.16 bitrate= 185.2kbits/s speed=0.894x elapsed=0:00:08.00    frame=  193 fps= 23 q=28.0 size=     162KiB time=00:00:07.64 bitrate= 173.5kbits/s speed=0.898x elapsed=0:00:08.50    frame=  206 fps= 23 q=28.0 size=     162KiB time=00:00:08.16 bitrate= 162.5kbits/s speed=0.906x elapsed=0:00:09.00    frame=  218 fps= 23 q=28.0 size=     162KiB time=00:00:08.64 bitrate= 153.4kbits/s speed=0.909x elapsed=0:00:09.50    frame=  231 fps= 23 q=28.0 size=     162KiB time=00:00:09.16 bitrate= 144.7kbits/s speed=0.915x elapsed=0:00:10.00    frame=  243 fps= 23 q=28.0 size=     162KiB time=00:00:09.64 bitrate= 137.5kbits/s speed=0.917x elapsed=0:00:10.50    frame=  255 fps= 23 q=28.0 size=     256KiB time=00:00:10.12 bitrate= 207.2kbits/s speed=0.919x elapsed=0:00:11.00    frame=  268 fps= 23 q=28.0 size=     256KiB time=00:00:10.64 bitrate= 197.1kbits/s speed=0.924x elapsed=0:00:11.51    frame=  281 fps= 23 q=28.0 size=     256KiB time=00:00:11.16 bitrate= 187.9kbits/s speed=0.929x elapsed=0:00:12.01    frame=  293 fps= 23 q=28.0 size=     256KiB time=00:00:11.64 bitrate= 180.2kbits/s speed=0.93x elapsed=0:00:12.51    frame=  306 fps= 24 q=28.0 size=     256KiB time=00:00:12.16 bitrate= 172.5kbits/s speed=0.935x elapsed=0:00:13.01    frame=  318 fps= 24 q=28.0 size=     256KiB time=00:00:12.64 bitrate= 165.9kbits/s speed=0.936x elapsed=0:00:13.51    frame=  331 fps= 24 q=28.0 size=     256KiB time=00:00:13.16 bitrate= 159.4kbits/s speed=0.939x elapsed=0:00:14.01    frame=  343 fps= 24 q=28.0 size=     256KiB time=00:00:13.64 bitrate= 153.8kbits/s speed=0.94x elapsed=0:00:14.51    frame=  356 fps= 24 q=28.0 size=     256KiB time=00:00:14.16 bitrate= 148.1kbits/s speed=0.943x elapsed=0:00:15.01    frame=  368 fps= 24 q=28.0 size=     256KiB time=00:00:14.64 bitrate= 143.2kbits/s speed=0.944x elapsed=0:00:15.51    frame=  381 fps= 24 q=28.0 size=     256KiB time=00:00:15.16 bitrate= 138.3kbits/s speed=0.947x elapsed=0:00:16.01    frame=  394 fps= 24 q=28.0 size=     256KiB time=00:00:15.68 bitrate= 133.7kbits/s speed=0.95x elapsed=0:00:16.51    frame=  406 fps= 24 q=28.0 size=     256KiB time=00:00:16.16 bitrate= 129.8kbits/s speed=0.95x elapsed=0:00:17.01    frame=  418 fps= 24 q=28.0 size=     256KiB time=00:00:16.64 bitrate= 126.0kbits/s speed=0.95x elapsed=0:00:17.51    frame=  431 fps= 24 q=28.0 size=     256KiB time=00:00:17.16 bitrate= 122.2kbits/s speed=0.953x elapsed=0:00:18.01    frame=  444 fps= 24 q=28.0 size=     256KiB time=00:00:17.68 bitrate= 118.6kbits/s speed=0.955x elapsed=0:00:18.51    frame=  456 fps= 24 q=28.0 size=     256KiB time=00:00:18.16 bitrate= 115.5kbits/s speed=0.955x elapsed=0:00:19.01    frame=  468 fps= 24 q=28.0 size=     256KiB time=00:00:18.64 bitrate= 112.5kbits/s speed=0.955x elapsed=0:00:19.51    frame=  481 fps= 24 q=28.0 size=     256KiB time=00:00:19.16 bitrate= 109.5kbits/s speed=0.957x elapsed=0:00:20.01    frame=  493 fps= 24 q=28.0 size=     256KiB time=00:00:19.64 bitrate= 106.8kbits/s speed=0.957x elapsed=0:00:20.51    frame=  506 fps= 24 q=28.0 size=     512KiB time=00:00:20.16 bitrate= 208.1kbits/s speed=0.959x elapsed=0:00:21.01    frame=  518 fps= 24 q=28.0 size=     512KiB time=00:00:20.64 bitrate= 203.2kbits/s speed=0.959x elapsed=0:00:21.51    frame=  531 fps= 24 q=28.0 size=     512KiB time=00:00:21.16 bitrate= 198.2kbits/s speed=0.961x elapsed=0:00:22.01    frame=  543 fps= 24 q=28.0 size=     512KiB time=00:00:21.64 bitrate= 193.8kbits/s speed=0.961x elapsed=0:00:22.51    frame=  556 fps= 24 q=28.0 size=     512KiB time=00:00:22.16 bitrate= 189.3kbits/s speed=0.963x elapsed=0:00:23.01    frame=  569 fps= 24 q=28.0 size=     512KiB time=00:00:22.68 bitrate= 184.9kbits/s speed=0.964x elapsed=0:00:23.51    frame=  581 fps= 24 q=28.0 size=     512KiB time=00:00:23.16 bitrate= 181.1kbits/s speed=0.964x elapsed=0:00:24.01    frame=  594 fps= 24 q=28.0 size=     512KiB time=00:00:23.68 bitrate= 177.1kbits/s speed=0.966x elapsed=0:00:24.51    frame=  606 fps= 24 q=28.0 size=     512KiB time=00:00:24.16 bitrate= 173.6kbits/s speed=0.966x elapsed=0:00:25.01    frame=  619 fps= 24 q=28.0 size=     512KiB time=00:00:24.68 bitrate= 169.9kbits/s speed=0.967x elapsed=0:00:25.51    frame=  631 fps= 24 q=28.0 size=     768KiB time=00:00:25.16 bitrate= 250.1kbits/s speed=0.967x elapsed=0:00:26.02    frame=  643 fps= 24 q=28.0 size=     768KiB time=00:00:25.64 bitrate= 245.4kbits/s speed=0.967x elapsed=0:00:26.52    frame=  656 fps= 24 q=28.0 size=     768KiB time=00:00:26.16 bitrate= 240.5kbits/s speed=0.968x elapsed=0:00:27.02    frame=  669 fps= 24 q=28.0 size=     768KiB time=00:00:26.68 bitrate= 235.8kbits/s speed=0.969x elapsed=0:00:27.52    frame=  681 fps= 24 q=28.0 size=     768KiB time=00:00:27.16 bitrate= 231.6kbits/s speed=0.969x elapsed=0:00:28.02    frame=  693 fps= 24 q=28.0 size=     768KiB time=00:00:27.64 bitrate= 227.6kbits/s speed=0.969x elapsed=0:00:28.52    frame=  706 fps= 24 q=28.0 size=     768KiB time=00:00:28.16 bitrate= 223.4kbits/s speed=0.97x elapsed=0:00:29.02    frame=  718 fps= 24 q=28.0 size=     768KiB time=00:00:28.64 bitrate= 219.7kbits/s speed=0.97x elapsed=0:00:29.52    frame=  731 fps= 24 q=28.0 size=     768KiB time=00:00:29.16 bitrate= 215.8kbits/s speed=0.971x elapsed=0:00:30.02    frame=  744 fps= 24 q=28.0 size=     768KiB time=00:00:29.68 bitrate= 212.0kbits/s speed=0.972x elapsed=0:00:30.52    frame=  756 fps= 24 q=28.0 size=     768KiB time=00:00:30.16 bitrate= 208.6kbits/s speed=0.972x elapsed=0:00:31.02    frame=  769 fps= 24 q=28.0 size=     768KiB time=00:00:30.68 bitrate= 205.1kbits/s speed=0.973x elapsed=0:00:31.52    frame=  781 fps= 24 q=28.0 size=     768KiB time=00:00:31.16 bitrate= 201.9kbits/s speed=0.973x elapsed=0:00:32.02    frame=  794 fps= 24 q=28.0 size=     768KiB time=00:00:31.68 bitrate= 198.6kbits/s speed=0.974x elapsed=0:00:32.52    frame=  806 fps= 24 q=28.0 size=     768KiB time=00:00:32.16 bitrate= 195.6kbits/s speed=0.974x elapsed=0:00:33.02    frame=  819 fps= 24 q=28.0 size=     768KiB time=00:00:32.68 bitrate= 192.5kbits/s speed=0.975x elapsed=0:00:33.53    frame=  831 fps= 24 q=28.0 size=     768KiB time=00:00:33.16 bitrate= 189.7kbits/s speed=0.974x elapsed=0:00:34.03    frame=  844 fps= 24 q=28.0 size=     768KiB time=00:00:33.68 bitrate= 186.8kbits/s speed=0.975x elapsed=0:00:34.53    frame=  856 fps= 24 q=28.0 size=     768KiB time=00:00:34.16 bitrate= 184.2kbits/s speed=0.975x elapsed=0:00:35.03    frame=  869 fps= 24 q=28.0 size=     768KiB time=00:00:34.68 bitrate= 181.4kbits/s speed=0.976x elapsed=0:00:35.53    frame=  881 fps= 24 q=28.0 size=    1024KiB time=00:00:35.16 bitrate= 238.6kbits/s speed=0.976x elapsed=0:00:36.03    frame=  894 fps= 24 q=28.0 size=    1024KiB time=00:00:35.68 bitrate= 235.1kbits/s speed=0.977x elapsed=0:00:36.53    frame=  906 fps= 24 q=28.0 size=    1024KiB time=00:00:36.16 bitrate= 232.0kbits/s speed=0.976x elapsed=0:00:37.03    frame=  919 fps= 24 q=28.0 size=    1024KiB time=00:00:36.68 bitrate= 228.7kbits/s speed=0.977x elapsed=0:00:37.53    frame=  931 fps= 24 q=28.0 size=    1024KiB time=00:00:37.16 bitrate= 225.7kbits/s speed=0.977x elapsed=0:00:38.03    frame=  944 fps= 24 q=28.0 size=    1024KiB time=00:00:37.68 bitrate= 222.6kbits/s speed=0.978x elapsed=0:00:38.53    frame=  955 fps= 24 q=28.0 size=    1024KiB time=00:00:38.12 bitrate= 220.1kbits/s speed=0.977x elapsed=0:00:39.03    frame=  969 fps= 25 q=28.0 size=    1024KiB time=00:00:38.68 bitrate= 216.9kbits/s speed=0.978x elapsed=0:00:39.53    frame=  981 fps= 25 q=28.0 size=    1024KiB time=00:00:39.16 bitrate= 214.2kbits/s speed=0.978x elapsed=0:00:40.03    frame=  994 fps= 25 q=28.0 size=    1024KiB time=00:00:39.68 bitrate= 211.4kbits/s speed=0.979x elapsed=0:00:40.54    frame= 1007 fps= 25 q=28.0 size=    1024KiB time=00:00:40.20 bitrate= 208.7kbits/s speed=0.979x elapsed=0:00:41.04    frame= 1019 fps= 25 q=28.0 size=    1024KiB time=00:00:40.68 bitrate= 206.2kbits/s speed=0.979x elapsed=0:00:41.54    frame= 1031 fps= 25 q=28.0 size=    1024KiB time=00:00:41.16 bitrate= 203.8kbits/s speed=0.979x elapsed=0:00:42.04    frame= 1044 fps= 25 q=28.0 size=    1024KiB time=00:00:41.68 bitrate= 201.3kbits/s speed=0.98x elapsed=0:00:42.55    frame= 1057 fps= 25 q=28.0 size=    1024KiB time=00:00:42.20 bitrate= 198.8kbits/s speed=0.98x elapsed=0:00:43.05    frame= 1069 fps= 25 q=28.0 size=    1024KiB time=00:00:42.68 bitrate= 196.5kbits/s speed=0.98x elapsed=0:00:43.55    frame= 1082 fps= 25 q=28.0 size=    1024KiB time=00:00:43.20 bitrate= 194.2kbits/s speed=0.981x elapsed=0:00:44.05    frame= 1094 fps= 25 q=28.0 size=    1024KiB time=00:00:43.68 bitrate= 192.0kbits/s speed=0.98x elapsed=0:00:44.55    frame= 1106 fps= 25 q=28.0 size=    1024KiB time=00:00:44.16 bitrate= 190.0kbits/s speed=0.98x elapsed=0:00:45.05    frame= 1119 fps= 25 q=28.0 size=    1024KiB time=00:00:44.68 bitrate= 187.7kbits/s speed=0.981x elapsed=0:00:45.55    frame= 1132 fps= 25 q=28.0 size=    1280KiB time=00:00:45.20 bitrate= 232.0kbits/s speed=0.981x elapsed=0:00:46.05    frame= 1144 fps= 25 q=28.0 size=    1280KiB time=00:00:45.68 bitrate= 229.5kbits/s speed=0.981x elapsed=0:00:46.55    frame= 1157 fps= 25 q=28.0 size=    1280KiB time=00:00:46.20 bitrate= 227.0kbits/s speed=0.982x elapsed=0:00:47.06    frame= 1169 fps= 25 q=28.0 size=    1280KiB time=00:00:46.68 bitrate= 224.6kbits/s speed=0.981x elapsed=0:00:47.56    frame= 1182 fps= 25 q=28.0 size=    1280KiB time=00:00:47.20 bitrate= 222.2kbits/s speed=0.982x elapsed=0:00:48.06    frame= 1195 fps= 25 q=28.0 size=    1280KiB time=00:00:47.72 bitrate= 219.7kbits/s speed=0.983x elapsed=0:00:48.56    frame= 1207 fps= 25 q=28.0 size=    1280KiB time=00:00:48.20 bitrate= 217.5kbits/s speed=0.982x elapsed=0:00:49.06    frame= 1220 fps= 25 q=28.0 size=    1280KiB time=00:00:48.72 bitrate= 215.2kbits/s speed=0.983x elapsed=0:00:49.57    frame= 1232 fps= 25 q=28.0 size=    1280KiB time=00:00:49.20 bitrate= 213.1kbits/s speed=0.983x elapsed=0:00:50.07    frame= 1245 fps= 25 q=28.0 size=    1280KiB time=00:00:49.72 bitrate= 210.9kbits/s speed=0.983x elapsed=0:00:50.57    frame= 1257 fps= 25 q=28.0 size=    1280KiB time=00:00:50.20 bitrate= 208.9kbits/s speed=0.983x elapsed=0:00:51.07    frame= 1270 fps= 25 q=28.0 size=    1280KiB time=00:00:50.72 bitrate= 206.7kbits/s speed=0.983x elapsed=0:00:51.57    frame= 1283 fps= 25 q=28.0 size=    1280KiB time=00:00:51.24 bitrate= 204.6kbits/s speed=0.984x elapsed=0:00:52.07    frame= 1295 fps= 25 q=28.0 size=    1280KiB time=00:00:51.72 bitrate= 202.7kbits/s speed=0.984x elapsed=0:00:52.57    frame= 1307 fps= 25 q=28.0 size=    1280KiB time=00:00:52.20 bitrate= 200.9kbits/s speed=0.984x elapsed=0:00:53.07    frame= 1320 fps= 25 q=28.0 size=    1280KiB time=00:00:52.72 bitrate= 198.9kbits/s speed=0.984x elapsed=0:00:53.57    frame= 1332 fps= 25 q=28.0 size=    1280KiB time=00:00:53.20 bitrate= 197.1kbits/s speed=0.984x elapsed=0:00:54.07    frame= 1345 fps= 25 q=28.0 size=    1280KiB time=00:00:53.72 bitrate= 195.2kbits/s speed=0.984x elapsed=0:00:54.57    frame= 1358 fps= 25 q=28.0 size=    1280KiB time=00:00:54.24 bitrate= 193.3kbits/s speed=0.985x elapsed=0:00:55.07    frame= 1370 fps= 25 q=28.0 size=    1280KiB time=00:00:54.72 bitrate= 191.6kbits/s speed=0.985x elapsed=0:00:55.57    frame= 1383 fps= 25 q=28.0 size=    1536KiB time=00:00:55.24 bitrate= 227.8kbits/s speed=0.985x elapsed=0:00:56.07    frame= 1395 fps= 25 q=28.0 size=    1536KiB time=00:00:55.72 bitrate= 225.8kbits/s speed=0.985x elapsed=0:00:56.57    frame= 1407 fps= 25 q=28.0 size=    1536KiB time=00:00:56.20 bitrate= 223.9kbits/s speed=0.985x elapsed=0:00:57.07    frame= 1420 fps= 25 q=28.0 size=    1536KiB time=00:00:56.72 bitrate= 221.8kbits/s speed=0.985x elapsed=0:00:57.57    frame= 1433 fps= 25 q=28.0 size=    1536KiB time=00:00:57.24 bitrate= 219.8kbits/s speed=0.986x elapsed=0:00:58.07    frame= 1445 fps= 25 q=28.0 size=    1536KiB time=00:00:57.72 bitrate= 218.0kbits/s speed=0.985x elapsed=0:00:58.57    frame= 1458 fps= 25 q=28.0 size=    1536KiB time=00:00:58.24 bitrate= 216.1kbits/s speed=0.986x elapsed=0:00:59.07    frame= 1470 fps= 25 q=28.0 size=    1536KiB time=00:00:58.72 bitrate= 214.3kbits/s speed=0.986x elapsed=0:00:59.58    frame= 1483 fps= 25 q=28.0 size=    1536KiB time=00:00:59.24 bitrate= 212.4kbits/s speed=0.986x elapsed=0:01:00.08    frame= 1495 fps= 25 q=28.0 size=    1536KiB time=00:00:59.72 bitrate= 210.7kbits/s speed=0.986x elapsed=0:01:00.58    frame= 1508 fps= 25 q=28.0 size=    1536KiB time=00:01:00.24 bitrate= 208.9kbits/s speed=0.986x elapsed=0:01:01.08    [out#0/matroska @ 0x55ca84166500] video:1902KiB audio:0KiB subtitle:0KiB other streams:0KiB global headers:0KiB muxing overhead: 0.603421%
frame= 1541 fps= 25 q=-1.0 Lsize=    1913KiB time=00:01:01.56 bitrate= 254.6kbits/s speed=0.997x elapsed=0:01:01.74    
[libx264 @ 0x55ca84167f00] frame I:7     Avg QP:11.84  size:116605
[libx264 @ 0x55ca84167f00] frame P:389   Avg QP:16.78  size:  1578
[libx264 @ 0x55ca84167f00] frame B:1145  Avg QP:23.97  size:   451
[libx264 @ 0x55ca84167f00] consecutive B-frames:  0.7%  0.4%  0.8% 98.1%
[libx264 @ 0x55ca84167f00] mb I  I16..4: 88.9%  1.9%  9.1%
[libx264 @ 0x55ca84167f00] mb P  I16..4:  0.2%  0.1%  0.0%  P16..4:  0.3%  0.2%  0.1%  0.0%  0.0%    skip:99.2%
[libx264 @ 0x55ca84167f00] mb B  I16..4:  0.0%  0.0%  0.0%  B16..8:  0.2%  0.1%  0.0%  direct: 0.0%  skip:99.6%  L0:45.3% L1:47.7% BI: 7.1%
[libx264 @ 0x55ca84167f00] 8x8 transform intra:4.3% inter:2.3%
[libx264 @ 0x55ca84167f00] coded y,uvDC,uvAC intra: 14.4% 20.2% 16.5% inter: 0.1% 0.1% 0.0%
[libx264 @ 0x55ca84167f00] i16 v,h,dc,p: 70% 28%  2%  0%
[libx264 @ 0x55ca84167f00] i8 v,h,dc,ddl,ddr,vr,hd,vl,hu: 12% 16% 66%  1%  1%  2%  1%  0%  1%
[libx264 @ 0x55ca84167f00] i4 v,h,dc,ddl,ddr,vr,hd,vl,hu: 33% 27% 21%  3%  2%  6%  2%  4%  2%
[libx264 @ 0x55ca84167f00] i8c dc,h,v,p: 62% 29%  9%  0%
[libx264 @ 0x55ca84167f00] Weighted P-Frames: Y:0.0% UV:0.0%
[libx264 @ 0x55ca84167f00] kb/s:252.68
Exiting normally, received signal 2.
